<?xml version="1.0" standalone="no"?>
<!DOCTYPE svg PUBLIC "-//W3C//DTD SVG 20010904//EN"
 "http://www.w3.org/TR/2001/REC-SVG-20010904/DTD/svg10.dtd">
<svg version="1.0" xmlns="http://www.w3.org/2000/svg"
 width="452.000000pt" height="452.000000pt" viewBox="0 0 452.000000 452.000000"
 preserveAspectRatio="xMidYMid meet">
<metadata>
Created by potrace 1.11, written by Peter Selinger 2001-2013
</metadata>
<g transform="translate(0.000000,452.000000) scale(0.100000,-0.100000)"
fill="#000000" stroke="none">
<path d="M2360 4025 c-225 -45 -463 -175 -631 -345 -98 -99 -154 -188 -216
-341 -8 -18 -24 -29 -54 -38 -59 -17 -196 -82 -270 -126 l-59 -37 -69 69
c-191 191 -472 236 -713 116 -144 -73 -271 -232 -313 -393 -26 -98 -17 -272
18 -362 55 -144 157 -260 286 -327 76 -39 176 -71 225 -71 24 0 26 -3 26 -46
0 -39 -6 -53 -35 -85 -124 -137 -122 -336 5 -473 l39 -42 -10 -69 c-20 -128
18 -306 93 -433 18 -31 68 -91 110 -134 127 -127 298 -198 478 -198 175 0 305
55 423 179 l73 77 163 -3 162 -3 49 -98 c138 -276 362 -407 638 -372 287 37
513 232 588 510 27 99 25 264 -5 360 -30 96 -59 153 -119 233 -34 44 -47 69
-41 78 15 24 68 162 84 221 l16 57 72 -61 c222 -188 548 -352 745 -376 147
-17 250 22 329 126 91 120 87 327 -12 570 -44 109 -87 179 -152 252 l-53 58
35 58 c76 126 117 292 118 479 2 277 -99 425 -317 466 -96 17 -226 -16 -351
-92 -175 -106 -380 -347 -496 -581 -24 -49 -46 -88 -50 -88 -4 0 -20 21 -37
46 l-29 46 17 47 c50 130 64 336 35 521 -54 352 -207 560 -460 625 -72 18
-243 18 -335 0z m-1591 -680 c182 -43 346 -192 404 -365 15 -45 15 -46 -19
-115 -47 -99 -66 -188 -62 -309 l2 -101 -64 -65 c-105 -105 -240 -160 -393
-160 -245 0 -458 153 -539 388 -33 96 -33 258 0 354 62 179 226 330 405 374
72 17 189 17 266 -1z m1180 -161 c191 -64 329 -201 399 -396 22 -63 26 -89 27
-193 0 -100 -4 -132 -24 -193 -63 -191 -209 -339 -401 -405 -71 -25 -102 -30
-185 -31 -117 -1 -182 13 -282 60 -142 67 -255 189 -317 342 -29 73 -31 84
-31 217 0 166 17 230 94 348 100 153 254 250 446 280 65 11 198 -3 274 -29z"/>
<path d="M881 3074 c-64 -54 -27 -154 56 -154 42 1 63 13 81 47 18 32 15 41
-11 36 -25 -5 -57 19 -57 41 0 8 7 19 15 26 8 7 12 16 9 21 -11 18 -63 9 -93
-17z"/>
<path d="M1354 2988 c29 -46 -24 -94 -62 -56 -9 9 -12 4 -12 -23 0 -63 66
-101 126 -73 64 30 70 119 11 155 -18 10 -42 19 -55 19 -21 0 -21 -2 -8 -22z"/>
</g>
</svg>
